<svg width="120" height="100" viewBox="0 0 120 100" fill="none" xmlns="http://www.w3.org/2000/svg">
<path d="M26.6659 23C11.9385 23 0 34.9384 0 49.6658C0 64.3932 11.9385 76.3316 26.6659 76.3316C41.3933 76.3316 53.3318 64.3932 53.3318 49.6658C53.3318 34.9384 41.3933 23 26.6659 23ZM51.5978 49.6658C51.5978 63.4354 40.4355 74.5976 26.6659 74.5976C12.8962 74.5976 1.73271 63.4354 1.73271 49.6658C1.73271 35.8962 12.895 24.734 26.6646 24.734C40.4342 24.734 51.5978 35.8962 51.5978 49.6658Z" fill="#14142B"/>
<path d="M39.5895 38.3523C39.9514 38.7411 40.4731 39.3689 40.7659 39.7487L46.1661 36.3204C45.8963 35.9675 45.4666 35.4317 45.1457 35.0544L41.7263 37.3153L41.4935 37.516L41.6675 37.2616L43.1764 34.2475L42.1099 33.1811L39.0946 34.6913L38.8401 34.8652L39.0422 34.6312L41.3043 31.2131C40.9066 30.8742 40.5242 30.5635 40.0358 30.1875L36.6074 35.5838C37.0422 35.9189 37.6138 36.4086 37.9782 36.7424L41.2045 35.0685L41.4104 34.9163L41.2583 35.1235L39.5895 38.3523Z" fill="#14142B"/>
<path d="M27.3389 31.5164L28.8146 28.2121L28.9092 27.9193L28.8823 28.2249L29.0371 32.6404C29.555 32.6903 30.0895 32.7606 30.6163 32.8489L30.3759 26.3081C29.6381 26.2262 28.9041 26.1687 28.1714 26.1367L26.7187 29.7441L26.6675 30.0113L26.6164 29.7441L25.1637 26.1367C24.4297 26.1674 23.6957 26.2262 22.9592 26.3081L22.7188 32.8489C23.2469 32.7619 23.7814 32.6903 24.298 32.6404L24.4527 28.2249L24.4259 27.9193L24.5205 28.2121L25.9962 31.5164H27.3389Z" fill="#14142B"/>
<path d="M15.4035 36.7304C16.2565 35.8314 16.7398 34.7944 15.8856 33.802C15.4214 33.2637 14.6427 33.146 13.9956 33.412L13.9317 33.4376L13.9522 33.3813C14.0481 33.1256 14.1082 32.311 13.4138 31.7484C13.0749 31.4747 12.6504 31.3724 12.2207 31.4159C11.4202 31.4965 10.8026 32.0438 9.12485 33.9159C8.61974 34.4798 7.8819 35.3711 7.43945 35.9478L12.0468 40.3198C13.5788 38.6281 14.2002 37.9989 15.4035 36.7304ZM9.39211 35.6613C10.3205 34.5258 11.3064 33.4964 11.754 33.0885C11.8946 32.9593 12.0481 32.8315 12.2348 32.7803C12.5379 32.6972 12.8499 32.912 12.9202 33.2228C12.9905 33.5348 12.7949 33.8302 12.5775 34.0757C12.0864 34.6281 10.2872 36.5117 10.2872 36.5117L9.39211 35.6613ZM11.1952 37.3736C11.1952 37.3736 12.9483 35.5207 13.5199 34.9273C13.7476 34.6921 13.8933 34.5501 14.0506 34.4721C14.2527 34.3724 14.4739 34.3532 14.6708 34.4849C14.8652 34.6141 14.9547 34.8404 14.9061 35.0616C14.8473 35.3263 14.6325 35.5782 14.4521 35.7713C14.2105 36.0309 12.1312 38.2547 12.1287 38.2585L11.1952 37.3736Z" fill="#14142B"/>
<path d="M26.6647 33.8516C17.9244 33.8516 10.8516 40.9256 10.8516 49.6646C10.8516 58.3985 17.932 65.4776 26.6647 65.4776C35.4049 65.4776 42.4777 58.4036 42.4777 49.6646C42.479 40.9307 35.3986 33.8516 26.6647 33.8516ZM26.6647 49.6646V64.6106C18.4231 64.6106 11.7186 57.9062 11.7186 49.6646H26.6647V34.7186C34.9062 34.7186 41.6107 41.423 41.6107 49.6646H26.6647Z" fill="#14142B"/>
<path d="M90.7498 36.332C88.2204 36.332 85.8816 37.676 84.6066 39.8601L71.1094 63.0004H82.2205H100.358C102.888 63.0004 105.227 61.6564 106.501 59.4723L120 36.3333H90.7498V36.332ZM73.3728 61.6999L85.7307 40.5161C86.7677 38.7374 88.691 37.6325 90.7498 37.6325H97.0182L82.9788 61.6999H73.3728ZM103.498 58.3496C102.78 59.5784 101.466 60.3342 100.042 60.3342H95.6602L103.174 47.4533C103.652 46.6336 104.53 46.1298 105.477 46.1298H110.625L103.498 58.3496ZM110.142 44.3319H104.994L107.562 39.9292H114.242L112.445 43.0084C111.968 43.8281 111.091 44.3319 110.142 44.3319Z" fill="#14142B"/>
</svg>
