<svg width="120" height="100" viewBox="0 0 120 100" fill="none" xmlns="http://www.w3.org/2000/svg">
<path d="M28.8618 73.9281L25.1237 71.2098L21.3857 73.9281L22.8157 69.5343L19.0801 66.8208H23.6949L25.1237 62.4258L26.555 66.8208H31.1613L27.4257 69.5343L28.8618 73.9281Z" fill="#14142B"/>
<path d="M99.2637 73.9281L95.5256 71.2098L91.7839 73.9281L93.2188 69.5343L89.4746 66.8184H94.0907L95.5256 62.4258L96.941 66.8184H101.567L97.8288 69.5343L99.2637 73.9281Z" fill="#14142B"/>
<path d="M46.4555 73.9281L42.7187 71.2098L38.9929 73.9281L40.418 69.5343L36.6836 66.8208H41.2972L42.7187 62.4258L44.1573 66.8208H48.7709L45.0267 69.5343L46.4555 73.9281Z" fill="#14142B"/>
<path d="M64.0627 73.9281L60.3259 71.2098L56.5866 73.9281L58.013 69.5343L54.2773 66.8208H58.8959L60.3259 62.4258L61.7522 66.8208H66.3708L62.6303 69.5343L64.0627 73.9281Z" fill="#14142B"/>
<path d="M81.654 73.9281L77.9257 71.2098L74.1889 73.9281L75.6177 69.5343L71.8809 66.8208H76.4982L77.9257 62.4258L79.357 66.8208L83.9694 66.8184L80.2313 69.5343L81.654 73.9281Z" fill="#14142B"/>
<path d="M87.1427 52.6668C90.8979 48.041 90.8417 43.4151 88.9061 39.4487C84.693 43.7754 85.8886 50.6849 87.1427 52.6668ZM47.619 49.7971V40.2779C46.0412 40.2779 43.8235 42.5261 43.8235 45.0515C43.8223 47.5733 45.6834 49.7971 47.619 49.7971ZM37.096 49.968C37.0557 49.8532 37.0374 49.7836 37.0142 49.6701C34.7562 38.4303 44.555 35.9195 47.619 36.038H54.9889C54.9889 36.038 54.9876 46.5853 54.9876 49.3355C54.9876 52.27 56.8695 51.3235 58.3105 49.9631C58.3105 49.9631 58.2641 40.8238 58.2641 36.2651C58.2641 31.4524 54.2977 31.82 54.2977 31.82L59.7881 27H60.4207C63.9023 27 65.4483 30.0395 65.5827 33.0656V40.9313C65.5827 40.9313 71.7948 35.497 72.0159 35.2833C74.893 35.5226 75.931 37.6939 75.953 39.3877V50.0413C75.953 52.6656 77.8764 51.8279 79.1208 50.5542C76.6686 40.4635 82.5975 36.5826 85.5027 35.083L95.9475 38.1323C96.1978 38.6586 96.4531 39.384 96.751 40.2132C96.751 40.2132 101.78 35.7986 102.724 34.9585C105.128 35.3859 106.562 36.8953 106.696 38.6818V49.7336C106.696 52.8769 108.284 51.856 109.432 50.785L109.425 35.8609H116.697C116.697 35.8609 116.726 47.0225 116.697 48.7517C116.697 52.4128 120 51.8951 120 51.8951C118.752 53.137 116.705 54.9309 115.816 55.7699C112.114 55.6099 110.494 53.9149 109.677 52.2065C108.527 53.286 106.949 54.7758 105.794 55.8663C99.8895 56.8213 99.4242 51.1013 99.4242 51.1013L99.4267 42.4199C99.4267 41.0106 98.1505 41.2854 97.1577 41.2854C98.5755 51.2735 92.6576 55.6355 88.3603 55.9469C83.9713 56.2657 81.2566 53.7048 79.7374 51.7314C77.7042 53.6047 75.252 55.9176 75.252 55.9176C71.2966 56.3548 68.682 54.3154 68.682 50.8973V44.6058C68.682 42.5506 67.0102 42.5567 65.5839 42.5567V55.6099H58.3117V51.4896C58.3117 51.4896 57.0209 52.69 53.8251 55.7064C50.5706 56.7566 48.6607 54.2776 47.8071 52.8122C47.2001 53.3568 46.719 53.8111 44.6857 55.7296C40.9489 55.7296 38.5541 52.5386 37.7689 51.2674L37.7396 51.1953L32.5166 55.7735C32.5166 55.7735 25.9759 57.8153 25.9759 49.7494L25.9832 44.4202L25.982 36.3592C25.982 34.321 24.5483 34.0279 23.0108 34.0279V55.6074H15.0389C15.0389 55.6074 14.995 39.2875 14.995 36.3592C14.995 34.3466 13.7249 33.9082 12.0311 33.9082L12.025 55.6074H3.96153C4.01893 52.8573 3.96153 39.1691 3.96153 37.5535C3.96153 32.7396 0 33.1071 0 33.1071L5.49168 28.2871H7.58479C8.83041 28.2871 12.0324 29.2555 12.0324 32.096L16.3773 28.2871H18.573C20.3291 28.2871 23.0121 29.4155 23.0121 32.1839L27.4511 28.2871H29.5234C31.1098 28.2871 33.9698 29.2445 33.9698 32.1742L34.0492 44.4202C33.9918 47.1703 34.0467 44.8928 34.0467 46.5072C34.0467 51.1672 36.1288 50.7252 37.1839 50.1756C37.1815 50.1781 37.1253 50.0511 37.096 49.968Z" fill="#14142B"/>
</svg>
